<svg width="180" height="20" viewBox="0 0 180 20" fill="none" xmlns="http://www.w3.org/2000/svg">
<path d="M84.0558 19.968C82.3321 19.968 80.7875 19.6523 79.4222 19.0208C78.0739 18.3723 77.0073 17.4677 76.2222 16.3072C75.4542 15.1467 75.0702 13.7984 75.0702 12.2624C75.0702 10.7435 75.4371 9.41227 76.171 8.2688C76.9219 7.12533 77.9459 6.23787 79.243 5.6064C80.5401 4.95787 82.0163 4.6336 83.6718 4.6336C85.3614 4.6336 86.8121 5.00907 88.0238 5.76C89.2355 6.49387 90.1657 7.53493 90.8142 8.8832C91.4798 10.2315 91.8126 11.8187 91.8126 13.6448H78.5006V10.8032H89.5086L87.8446 11.8272C87.7763 10.9739 87.563 10.2485 87.2046 9.6512C86.8633 9.05387 86.3939 8.59307 85.7966 8.2688C85.1993 7.94453 84.4995 7.7824 83.6974 7.7824C82.827 7.7824 82.0675 7.9616 81.419 8.32C80.7875 8.66133 80.2926 9.14773 79.9342 9.7792C79.5929 10.3936 79.4222 11.1189 79.4222 11.9552C79.4222 12.9621 79.6441 13.824 80.0878 14.5408C80.5315 15.2576 81.1801 15.8037 82.0334 16.1792C82.8867 16.5547 83.9193 16.7424 85.131 16.7424C86.2233 16.7424 87.3241 16.5888 88.4334 16.2816C89.5427 15.9573 90.5411 15.5051 91.4286 14.9248V17.792C90.4729 18.4747 89.355 19.0123 88.075 19.4048C86.8121 19.7803 85.4723 19.968 84.0558 19.968Z" fill="#252525"/>
<path d="M44.897 5.0176H49.1722L50.0938 10.5728V19.584H45.8186V9.9328L44.897 5.0176ZM55.2906 4.6336C56.5876 4.6336 57.697 4.9152 58.6186 5.4784C59.5402 6.02453 60.2399 6.8096 60.7178 7.8336C61.2127 8.8576 61.4602 10.0779 61.4602 11.4944V19.584H57.185V12.1344C57.185 10.8203 56.8948 9.8304 56.3146 9.1648C55.7514 8.48213 54.9236 8.1408 53.8314 8.1408C53.0634 8.1408 52.3978 8.32853 51.8346 8.704C51.2714 9.0624 50.8362 9.56587 50.529 10.2144C50.2388 10.8629 50.0938 11.6395 50.0938 12.544L48.6858 11.8016C48.8564 10.2656 49.249 8.96853 49.8634 7.9104C50.4778 6.85227 51.2458 6.0416 52.1674 5.4784C53.106 4.9152 54.1471 4.6336 55.2906 4.6336ZM66.6314 4.6336C67.9284 4.6336 69.0378 4.9152 69.9594 5.4784C70.898 6.02453 71.6063 6.8096 72.0842 7.8336C72.5791 8.8576 72.8266 10.0779 72.8266 11.4944V19.584H68.5514V12.1344C68.5514 10.8203 68.2612 9.8304 67.681 9.1648C67.1178 8.48213 66.29 8.1408 65.1978 8.1408C64.4298 8.1408 63.7642 8.32853 63.201 8.704C62.6378 9.0624 62.2026 9.56587 61.8954 10.2144C61.6052 10.8629 61.4602 11.6395 61.4602 12.544L60.0522 11.8016C60.2228 10.2656 60.6154 8.96853 61.2298 7.9104C61.8442 6.85227 62.6122 6.0416 63.5338 5.4784C64.4724 4.9152 65.505 4.6336 66.6314 4.6336Z" fill="#252525"/>
<path d="M38.3008 19.584L37.6864 14.2592L38.3776 12.3136L37.6864 10.3936L38.3008 5.0176H42.7296L41.8848 12.3136L42.7296 19.584H38.3008ZM39.4272 12.3136C39.1541 13.8496 38.6506 15.1979 37.9168 16.3584C37.2 17.5019 36.2869 18.3893 35.1776 19.0208C34.0853 19.6523 32.8565 19.968 31.4912 19.968C30.0746 19.968 28.8202 19.6523 27.728 19.0208C26.6357 18.3723 25.7824 17.4763 25.168 16.3328C24.5706 15.1723 24.272 13.8325 24.272 12.3136C24.272 10.7776 24.5706 9.43787 25.168 8.2944C25.7824 7.13387 26.6357 6.23787 27.728 5.6064C28.8202 4.95787 30.0746 4.6336 31.4912 4.6336C32.8565 4.6336 34.0853 4.94933 35.1776 5.5808C36.2869 6.21227 37.2085 7.10827 37.9424 8.2688C38.6762 9.41227 39.1712 10.7605 39.4272 12.3136ZM28.5984 12.3136C28.5984 13.1669 28.769 13.9179 29.1104 14.5664C29.4688 15.2149 29.9552 15.7269 30.5696 16.1024C31.184 16.4608 31.8922 16.64 32.6944 16.64C33.4965 16.64 34.2474 16.4608 34.9472 16.1024C35.664 15.7269 36.2954 15.2149 36.8416 14.5664C37.3877 13.9179 37.8144 13.1669 38.1216 12.3136C37.8144 11.4603 37.3877 10.7093 36.8416 10.0608C36.2954 9.3952 35.664 8.8832 34.9472 8.5248C34.2474 8.14933 33.4965 7.9616 32.6944 7.9616C31.8922 7.9616 31.184 8.14933 30.5696 8.5248C29.9552 8.8832 29.4688 9.3952 29.1104 10.0608C28.769 10.7093 28.5984 11.4603 28.5984 12.3136Z" fill="#252525"/>
<path d="M20.352 11.264C20.3349 12.4245 20.1045 13.5339 19.6608 14.592C19.2341 15.6331 18.6197 16.5632 17.8176 17.3824C17.0155 18.1845 16.0256 18.816 14.848 19.2768C13.6704 19.7376 12.3051 19.968 10.752 19.968C9.25013 19.968 7.84213 19.7461 6.528 19.3024C5.23093 18.8416 4.08747 18.1845 3.0976 17.3312C2.1248 16.4779 1.36533 15.4368 0.8192 14.208C0.273067 12.9621 0 11.5541 0 9.984C0 8.41387 0.273067 7.0144 0.8192 5.7856C1.3824 4.53973 2.15893 3.49013 3.1488 2.6368C4.13867 1.78347 5.2992 1.13493 6.6304 0.6912C7.9616 0.2304 9.41227 0 10.9824 0C13.0304 0 14.8053 0.324267 16.3072 0.9728C17.8091 1.60427 19.0208 2.4832 19.9424 3.6096C20.8811 4.736 21.4613 6.02453 21.6832 7.4752H17.3056C17.1349 6.69013 16.7595 6.016 16.1792 5.4528C15.616 4.8896 14.8907 4.4544 14.0032 4.1472C13.1328 3.84 12.1259 3.6864 10.9824 3.6864C9.63413 3.6864 8.46507 3.93387 7.4752 4.4288C6.5024 4.90667 5.74293 5.61493 5.1968 6.5536C4.66773 7.49227 4.4032 8.63573 4.4032 9.984C4.4032 11.3323 4.6848 12.4843 5.248 13.44C5.8112 14.3957 6.61333 15.1296 7.6544 15.6416C8.69547 16.1365 9.92427 16.384 11.3408 16.384C12.7232 16.384 13.9349 16.1707 14.976 15.744C16.0171 15.3003 16.8363 14.6859 17.4336 13.9008C18.048 13.0987 18.3979 12.1515 18.4832 11.0592L20.352 11.264ZM11.9296 13.0304V9.8816H21.888V19.584H18.7648L18.176 11.8016L19.072 13.0304H11.9296Z" fill="#252525"/>
<path d="M179.842 15.0016C179.842 16.0427 179.535 16.9387 178.92 17.6896C178.323 18.4405 177.427 19.0123 176.232 19.4048C175.038 19.7803 173.579 19.968 171.855 19.968C170.08 19.968 168.535 19.7547 167.221 19.328C165.907 18.8843 164.883 18.2613 164.149 17.4592C163.415 16.6571 163.023 15.7269 162.972 14.6688H167.324C167.426 15.1467 167.682 15.5648 168.092 15.9232C168.501 16.2645 169.03 16.5291 169.679 16.7168C170.344 16.9045 171.112 16.9984 171.983 16.9984C173.195 16.9984 174.108 16.8619 174.722 16.5888C175.354 16.3157 175.669 15.9061 175.669 15.36C175.669 14.9675 175.447 14.6688 175.004 14.464C174.577 14.2592 173.783 14.1056 172.623 14.0032L169.909 13.7984C168.288 13.6619 166.999 13.3888 166.044 12.9792C165.088 12.5696 164.405 12.0576 163.996 11.4432C163.603 10.8117 163.407 10.1205 163.407 9.3696C163.407 8.32853 163.731 7.45813 164.38 6.7584C165.028 6.05867 165.933 5.5296 167.093 5.1712C168.271 4.8128 169.628 4.6336 171.164 4.6336C172.734 4.6336 174.133 4.84693 175.362 5.2736C176.591 5.70027 177.572 6.28907 178.306 7.04C179.057 7.79093 179.484 8.66133 179.586 9.6512H175.234C175.166 9.2928 174.97 8.96 174.645 8.6528C174.338 8.32853 173.886 8.064 173.288 7.8592C172.691 7.6544 171.915 7.552 170.959 7.552C169.884 7.552 169.056 7.68 168.476 7.936C167.895 8.17493 167.605 8.54187 167.605 9.0368C167.605 9.37813 167.784 9.65973 168.143 9.8816C168.501 10.0864 169.167 10.2315 170.14 10.3168L173.672 10.5984C175.243 10.7349 176.48 10.9995 177.384 11.392C178.289 11.7675 178.92 12.2624 179.279 12.8768C179.654 13.4912 179.842 14.1995 179.842 15.0016Z" fill="#3A8BFF"/>
<path d="M147.633 8.2432V6.3488L150.68 5.3504L152.497 1.1776H154.955V5.0176H161.406V8.2432H154.955V13.5424C154.955 14.6688 155.185 15.4624 155.646 15.9232C156.124 16.3669 156.943 16.5888 158.104 16.5888C158.838 16.5888 159.486 16.5205 160.049 16.384C160.613 16.2475 161.15 16.0512 161.662 15.7952V19.1232C161.167 19.328 160.51 19.5157 159.691 19.6864C158.872 19.8741 158.027 19.968 157.157 19.968C155.638 19.968 154.4 19.7291 153.445 19.2512C152.506 18.7563 151.806 18.0736 151.345 17.2032C150.902 16.3328 150.68 15.3173 150.68 14.1568V8.2432H147.633Z" fill="#3A8BFF"/>
<path d="M141.831 19.584L141.216 14.2592L141.908 12.3136L141.216 10.3936L141.831 5.0176H146.26L145.415 12.3136L146.26 19.584H141.831ZM142.957 12.3136C142.684 13.8496 142.181 15.1979 141.447 16.3584C140.73 17.5019 139.817 18.3893 138.708 19.0208C137.615 19.6523 136.387 19.968 135.021 19.968C133.605 19.968 132.35 19.6523 131.258 19.0208C130.166 18.3723 129.312 17.4763 128.698 16.3328C128.101 15.1723 127.802 13.8325 127.802 12.3136C127.802 10.7776 128.101 9.43787 128.698 8.2944C129.312 7.13387 130.166 6.23787 131.258 5.6064C132.35 4.95787 133.605 4.6336 135.021 4.6336C136.387 4.6336 137.615 4.94933 138.708 5.5808C139.817 6.21227 140.739 7.10827 141.472 8.2688C142.206 9.41227 142.701 10.7605 142.957 12.3136ZM132.128 12.3136C132.128 13.1669 132.299 13.9179 132.64 14.5664C132.999 15.2149 133.485 15.7269 134.1 16.1024C134.714 16.4608 135.422 16.64 136.224 16.64C137.027 16.64 137.777 16.4608 138.477 16.1024C139.194 15.7269 139.825 15.2149 140.372 14.5664C140.918 13.9179 141.344 13.1669 141.652 12.3136C141.344 11.4603 140.918 10.7093 140.372 10.0608C139.825 9.3952 139.194 8.8832 138.477 8.5248C137.777 8.14933 137.027 7.9616 136.224 7.9616C135.422 7.9616 134.714 8.14933 134.1 8.5248C133.485 8.8832 132.999 9.3952 132.64 10.0608C132.299 10.7093 132.128 11.4603 132.128 12.3136Z" fill="#3A8BFF"/>
<path d="M112.583 8.2432V6.3488L115.63 5.3504L117.447 1.1776H119.905V5.0176H126.356V8.2432H119.905V13.5424C119.905 14.6688 120.135 15.4624 120.596 15.9232C121.074 16.3669 121.893 16.5888 123.054 16.5888C123.788 16.5888 124.436 16.5205 124.999 16.384C125.563 16.2475 126.1 16.0512 126.612 15.7952V19.1232C126.117 19.328 125.46 19.5157 124.641 19.6864C123.822 19.8741 122.977 19.968 122.107 19.968C120.588 19.968 119.35 19.7291 118.395 19.2512C117.456 18.7563 116.756 18.0736 116.295 17.2032C115.852 16.3328 115.63 15.3173 115.63 14.1568V8.2432H112.583Z" fill="#3A8BFF"/>
<path d="M92.4526 13.312H96.8558C96.9582 13.9605 97.2398 14.5323 97.7006 15.0272C98.1785 15.5051 98.81 15.8805 99.595 16.1536C100.397 16.4096 101.319 16.5376 102.36 16.5376C103.879 16.5376 105.073 16.3243 105.944 15.8976C106.831 15.4539 107.275 14.8395 107.275 14.0544C107.275 13.44 107.019 12.9707 106.507 12.6464C106.012 12.3051 105.082 12.0576 103.717 11.904L99.851 11.4688C97.3593 11.1957 95.5502 10.6155 94.4238 9.728C93.3145 8.82347 92.7598 7.56907 92.7598 5.9648C92.7598 4.70187 93.1268 3.62667 93.8606 2.7392C94.6116 1.85173 95.6612 1.1776 97.0094 0.7168C98.3577 0.238934 99.9449 0 101.771 0C103.546 0 105.125 0.264534 106.507 0.793601C107.889 1.3056 108.99 2.03093 109.809 2.9696C110.629 3.8912 111.072 4.97493 111.141 6.2208H106.737C106.652 5.6576 106.396 5.1712 105.969 4.7616C105.56 4.33493 104.988 4.01067 104.254 3.7888C103.52 3.54987 102.659 3.4304 101.669 3.4304C100.286 3.4304 99.1854 3.6352 98.3662 4.0448C97.547 4.4544 97.1374 5.03467 97.1374 5.7856C97.1374 6.36587 97.3764 6.81813 97.8542 7.1424C98.3492 7.4496 99.211 7.68 100.44 7.8336L104.459 8.32C106.234 8.50773 107.642 8.81493 108.683 9.2416C109.741 9.6512 110.492 10.2059 110.936 10.9056C111.397 11.6053 111.627 12.4928 111.627 13.568C111.627 14.848 111.235 15.9744 110.449 16.9472C109.681 17.9029 108.598 18.6453 107.198 19.1744C105.799 19.7035 104.16 19.968 102.283 19.968C100.372 19.968 98.6905 19.6949 97.2398 19.1488C95.7892 18.5856 94.6457 17.8091 93.8094 16.8192C92.9732 15.8123 92.5209 14.6432 92.4526 13.312Z" fill="#3A8BFF"/>
</svg>
